<mxfile host="app.diagrams.net" modified="2022-03-09T15:20:16.596Z" agent="5.0 (Macintosh; Intel Mac OS X 10_15_7) AppleWebKit/537.36 (KHTML, like Gecko) Chrome/96.0.4664.110 Safari/537.36" etag="UTiUAUxwFEufp0dnSrx3" version="17.0.0" type="github">
  <diagram id="eBAYRbaCmWyt2Vs_kIRV" name="Page-1">
    <mxGraphModel dx="1186" dy="774" grid="1" gridSize="10" guides="1" tooltips="1" connect="1" arrows="1" fold="1" page="1" pageScale="1" pageWidth="850" pageHeight="1100" math="0" shadow="0">
      <root>
        <mxCell id="0" />
        <mxCell id="1" parent="0" />
        <mxCell id="41WGvHkmBzIe6xqzSiXb-1" value="" style="rounded=0;whiteSpace=wrap;html=1;" vertex="1" parent="1">
          <mxGeometry x="50" y="350" width="650" height="410" as="geometry" />
        </mxCell>
        <mxCell id="41WGvHkmBzIe6xqzSiXb-2" value="&lt;h1&gt;rtl_tcp&lt;/h1&gt;&lt;p&gt;On this option we use rtl_tcp to get the audio stream and control the device.&lt;/p&gt;&lt;p&gt;rtl_tcp outputs the raw stream so we need to demodulate on another component&lt;/p&gt;" style="text;html=1;strokeColor=none;fillColor=none;spacing=5;spacingTop=-20;whiteSpace=wrap;overflow=hidden;rounded=0;" vertex="1" parent="1">
          <mxGeometry x="50" y="30" width="260" height="120" as="geometry" />
        </mxCell>
        <mxCell id="41WGvHkmBzIe6xqzSiXb-3" value="rtl-sdr&lt;br&gt;USB dongle" style="rounded=1;whiteSpace=wrap;html=1;" vertex="1" parent="1">
          <mxGeometry x="760" y="500" width="80" height="60" as="geometry" />
        </mxCell>
        <mxCell id="41WGvHkmBzIe6xqzSiXb-4" value="" style="shape=flexArrow;endArrow=classic;startArrow=classic;html=1;rounded=0;entryX=0;entryY=0.5;entryDx=0;entryDy=0;" edge="1" parent="1" target="41WGvHkmBzIe6xqzSiXb-3">
          <mxGeometry width="100" height="100" relative="1" as="geometry">
            <mxPoint x="700" y="530" as="sourcePoint" />
            <mxPoint x="760" y="500" as="targetPoint" />
          </mxGeometry>
        </mxCell>
        <mxCell id="41WGvHkmBzIe6xqzSiXb-11" style="edgeStyle=orthogonalEdgeStyle;rounded=0;orthogonalLoop=1;jettySize=auto;html=1;" edge="1" parent="1" source="41WGvHkmBzIe6xqzSiXb-5" target="41WGvHkmBzIe6xqzSiXb-8">
          <mxGeometry relative="1" as="geometry" />
        </mxCell>
        <mxCell id="41WGvHkmBzIe6xqzSiXb-19" style="edgeStyle=orthogonalEdgeStyle;rounded=0;orthogonalLoop=1;jettySize=auto;html=1;entryX=0.25;entryY=0;entryDx=0;entryDy=0;strokeWidth=2;" edge="1" parent="1" source="41WGvHkmBzIe6xqzSiXb-5" target="41WGvHkmBzIe6xqzSiXb-12">
          <mxGeometry relative="1" as="geometry">
            <Array as="points">
              <mxPoint x="410" y="655" />
              <mxPoint x="380" y="655" />
            </Array>
          </mxGeometry>
        </mxCell>
        <mxCell id="41WGvHkmBzIe6xqzSiXb-5" value="rtl_tcp" style="rounded=0;whiteSpace=wrap;html=1;" vertex="1" parent="1">
          <mxGeometry x="400" y="550" width="120" height="60" as="geometry" />
        </mxCell>
        <mxCell id="41WGvHkmBzIe6xqzSiXb-7" value="USB Port" style="whiteSpace=wrap;html=1;aspect=fixed;" vertex="1" parent="1">
          <mxGeometry x="660" y="510" width="40" height="40" as="geometry" />
        </mxCell>
        <mxCell id="41WGvHkmBzIe6xqzSiXb-9" style="edgeStyle=orthogonalEdgeStyle;rounded=0;orthogonalLoop=1;jettySize=auto;html=1;exitX=1;exitY=0.5;exitDx=0;exitDy=0;entryX=0;entryY=0.5;entryDx=0;entryDy=0;" edge="1" parent="1" source="41WGvHkmBzIe6xqzSiXb-8" target="41WGvHkmBzIe6xqzSiXb-7">
          <mxGeometry relative="1" as="geometry" />
        </mxCell>
        <mxCell id="41WGvHkmBzIe6xqzSiXb-8" value="libusb" style="whiteSpace=wrap;html=1;aspect=fixed;" vertex="1" parent="1">
          <mxGeometry x="590" y="510" width="40" height="40" as="geometry" />
        </mxCell>
        <mxCell id="41WGvHkmBzIe6xqzSiXb-15" style="edgeStyle=orthogonalEdgeStyle;rounded=0;orthogonalLoop=1;jettySize=auto;html=1;" edge="1" parent="1" source="41WGvHkmBzIe6xqzSiXb-12" target="41WGvHkmBzIe6xqzSiXb-5">
          <mxGeometry relative="1" as="geometry">
            <Array as="points">
              <mxPoint x="440" y="655" />
              <mxPoint x="460" y="655" />
            </Array>
          </mxGeometry>
        </mxCell>
        <mxCell id="41WGvHkmBzIe6xqzSiXb-17" value="commands" style="edgeLabel;html=1;align=center;verticalAlign=middle;resizable=0;points=[];" vertex="1" connectable="0" parent="41WGvHkmBzIe6xqzSiXb-15">
          <mxGeometry x="0.1" y="2" relative="1" as="geometry">
            <mxPoint as="offset" />
          </mxGeometry>
        </mxCell>
        <mxCell id="41WGvHkmBzIe6xqzSiXb-12" value="localhost&lt;br&gt;socket" style="rounded=1;whiteSpace=wrap;html=1;" vertex="1" parent="1">
          <mxGeometry x="350" y="700" width="120" height="60" as="geometry" />
        </mxCell>
        <mxCell id="41WGvHkmBzIe6xqzSiXb-14" style="edgeStyle=orthogonalEdgeStyle;rounded=0;orthogonalLoop=1;jettySize=auto;html=1;entryX=0;entryY=0.25;entryDx=0;entryDy=0;" edge="1" parent="1" source="41WGvHkmBzIe6xqzSiXb-13" target="41WGvHkmBzIe6xqzSiXb-12">
          <mxGeometry relative="1" as="geometry">
            <Array as="points">
              <mxPoint x="260" y="715" />
            </Array>
          </mxGeometry>
        </mxCell>
        <mxCell id="41WGvHkmBzIe6xqzSiXb-16" value="commands&lt;br&gt;( freq, sample rate,&lt;br&gt;gain, tuning )" style="edgeLabel;html=1;align=center;verticalAlign=middle;resizable=0;points=[];" vertex="1" connectable="0" parent="41WGvHkmBzIe6xqzSiXb-14">
          <mxGeometry x="0.0039" y="1" relative="1" as="geometry">
            <mxPoint as="offset" />
          </mxGeometry>
        </mxCell>
        <mxCell id="41WGvHkmBzIe6xqzSiXb-13" value="fin radio app" style="rounded=0;whiteSpace=wrap;html=1;" vertex="1" parent="1">
          <mxGeometry x="180" y="480" width="120" height="60" as="geometry" />
        </mxCell>
        <mxCell id="41WGvHkmBzIe6xqzSiXb-20" value="I/Q data stream" style="edgeStyle=orthogonalEdgeStyle;rounded=0;orthogonalLoop=1;jettySize=auto;html=1;strokeWidth=2;exitX=0.133;exitY=0;exitDx=0;exitDy=0;exitPerimeter=0;" edge="1" parent="1" source="41WGvHkmBzIe6xqzSiXb-12" target="41WGvHkmBzIe6xqzSiXb-13">
          <mxGeometry relative="1" as="geometry">
            <mxPoint x="420" y="620" as="sourcePoint" />
            <mxPoint x="390" y="710" as="targetPoint" />
            <Array as="points">
              <mxPoint x="366" y="510" />
            </Array>
          </mxGeometry>
        </mxCell>
        <mxCell id="41WGvHkmBzIe6xqzSiXb-23" style="edgeStyle=orthogonalEdgeStyle;rounded=0;orthogonalLoop=1;jettySize=auto;html=1;strokeWidth=1;entryX=0.25;entryY=0;entryDx=0;entryDy=0;" edge="1" parent="1" source="41WGvHkmBzIe6xqzSiXb-21" target="41WGvHkmBzIe6xqzSiXb-25">
          <mxGeometry relative="1" as="geometry">
            <mxPoint x="210" y="430" as="targetPoint" />
          </mxGeometry>
        </mxCell>
        <mxCell id="41WGvHkmBzIe6xqzSiXb-21" value="VOLUME" style="shape=cylinder3;whiteSpace=wrap;html=1;boundedLbl=1;backgroundOutline=1;size=15;" vertex="1" parent="1">
          <mxGeometry x="190" y="310" width="60" height="50" as="geometry" />
        </mxCell>
        <mxCell id="41WGvHkmBzIe6xqzSiXb-24" style="edgeStyle=orthogonalEdgeStyle;rounded=0;orthogonalLoop=1;jettySize=auto;html=1;strokeWidth=1;entryX=0.85;entryY=-0.033;entryDx=0;entryDy=0;entryPerimeter=0;" edge="1" parent="1" source="41WGvHkmBzIe6xqzSiXb-22" target="41WGvHkmBzIe6xqzSiXb-25">
          <mxGeometry relative="1" as="geometry">
            <mxPoint x="270" y="420" as="targetPoint" />
            <Array as="points">
              <mxPoint x="425" y="410" />
              <mxPoint x="268" y="410" />
            </Array>
          </mxGeometry>
        </mxCell>
        <mxCell id="41WGvHkmBzIe6xqzSiXb-22" value="TUNING" style="shape=cylinder3;whiteSpace=wrap;html=1;boundedLbl=1;backgroundOutline=1;size=15;" vertex="1" parent="1">
          <mxGeometry x="395" y="310" width="60" height="50" as="geometry" />
        </mxCell>
        <mxCell id="41WGvHkmBzIe6xqzSiXb-25" value="rotary knob&lt;br&gt;potentiometer I/O" style="rounded=1;whiteSpace=wrap;html=1;" vertex="1" parent="1">
          <mxGeometry x="200" y="440" width="80" height="40" as="geometry" />
        </mxCell>
        <mxCell id="41WGvHkmBzIe6xqzSiXb-26" value="" style="shape=image;html=1;verticalAlign=top;verticalLabelPosition=bottom;labelBackgroundColor=#ffffff;imageAspect=0;aspect=fixed;image=https://cdn4.iconfinder.com/data/icons/geomicons/32/672411-speaker-volume-128.png" vertex="1" parent="1">
          <mxGeometry x="130" y="760" width="78" height="78" as="geometry" />
        </mxCell>
        <mxCell id="41WGvHkmBzIe6xqzSiXb-32" value="audio stream" style="edgeStyle=orthogonalEdgeStyle;rounded=0;orthogonalLoop=1;jettySize=auto;html=1;strokeWidth=1;" edge="1" parent="1" source="41WGvHkmBzIe6xqzSiXb-27" target="41WGvHkmBzIe6xqzSiXb-31">
          <mxGeometry relative="1" as="geometry" />
        </mxCell>
        <mxCell id="41WGvHkmBzIe6xqzSiXb-27" value="Demodulator" style="rounded=1;whiteSpace=wrap;html=1;" vertex="1" parent="1">
          <mxGeometry x="90" y="560" width="120" height="60" as="geometry" />
        </mxCell>
        <mxCell id="41WGvHkmBzIe6xqzSiXb-30" value="I/Q data stream" style="edgeStyle=orthogonalEdgeStyle;rounded=0;orthogonalLoop=1;jettySize=auto;html=1;strokeWidth=2;exitX=0;exitY=0.5;exitDx=0;exitDy=0;" edge="1" parent="1" source="41WGvHkmBzIe6xqzSiXb-13" target="41WGvHkmBzIe6xqzSiXb-27">
          <mxGeometry relative="1" as="geometry">
            <mxPoint x="115.96000000000004" y="540" as="sourcePoint" />
            <mxPoint x="50" y="350" as="targetPoint" />
            <Array as="points">
              <mxPoint x="150" y="510" />
            </Array>
          </mxGeometry>
        </mxCell>
        <mxCell id="41WGvHkmBzIe6xqzSiXb-33" style="edgeStyle=orthogonalEdgeStyle;rounded=0;orthogonalLoop=1;jettySize=auto;html=1;strokeWidth=1;" edge="1" parent="1" source="41WGvHkmBzIe6xqzSiXb-31" target="41WGvHkmBzIe6xqzSiXb-26">
          <mxGeometry relative="1" as="geometry" />
        </mxCell>
        <mxCell id="41WGvHkmBzIe6xqzSiXb-31" value="sox play&amp;nbsp;" style="rounded=1;whiteSpace=wrap;html=1;" vertex="1" parent="1">
          <mxGeometry x="80" y="660" width="120" height="60" as="geometry" />
        </mxCell>
        <mxCell id="41WGvHkmBzIe6xqzSiXb-36" value="&lt;h1&gt;Notes&lt;/h1&gt;&lt;p&gt;* fin radio app would need to perform a passthrough of the data stream since rtl_tcp only accepts one client. This makes the app more complex than we need.&amp;nbsp;&lt;span&gt;To avoid this I could modify rtl_tcp to accept commands on another socket. Maybe there&#39;s a multiplexor somewhere?&lt;/span&gt;&lt;/p&gt;&lt;p&gt;&lt;span&gt;* Another issue is that we&#39;ve moved the FM demodulator to an outside component. rtl_fm is not prepared to take input from an I/Q stream, so I&#39;d need to use another demod. Is there any one?&lt;/span&gt;&lt;/p&gt;" style="text;html=1;strokeColor=none;fillColor=none;spacing=5;spacingTop=-20;whiteSpace=wrap;overflow=hidden;rounded=0;" vertex="1" parent="1">
          <mxGeometry x="470" y="30" width="360" height="230" as="geometry" />
        </mxCell>
      </root>
    </mxGraphModel>
  </diagram>
</mxfile>
